<svg width="1940" height="343" viewBox="0 0 1940 343" fill="none" xmlns="http://www.w3.org/2000/svg">
<g clip-path="url(#clip0_0_25)">
<rect width="1940" height="343" fill="white"/>
<rect x="-3.89996" width="80.3148" height="20.5514" rx="3" fill="#E14646" fill-opacity="0.3"/>
<path d="M3.75291 14V3.81818H7.19325C7.98871 3.81818 8.64164 3.95407 9.15206 4.22585C9.66248 4.49432 10.0403 4.86387 10.2856 5.33452C10.5308 5.80516 10.6535 6.34044 10.6535 6.94034C10.6535 7.54025 10.5308 8.07221 10.2856 8.53622C10.0403 9.00024 9.66413 9.36482 9.15703 9.62997C8.64993 9.89181 8.00197 10.0227 7.21314 10.0227H4.42905V8.90909H7.17337C7.71693 8.90909 8.15443 8.82955 8.48587 8.67045C8.82062 8.51136 9.06257 8.28598 9.21172 7.99432C9.36418 7.69934 9.44041 7.34801 9.44041 6.94034C9.44041 6.53267 9.36418 6.17637 9.21172 5.87145C9.05926 5.56652 8.81565 5.3312 8.4809 5.16548C8.14614 4.99645 7.70367 4.91193 7.15348 4.91193H4.98587V14H3.75291ZM8.54553 9.42614L11.0512 14H9.61939L7.15348 9.42614H8.54553ZM15.6686 14.1591C14.9328 14.1591 14.2981 13.9967 13.7645 13.6719C13.2342 13.3438 12.8248 12.8864 12.5365 12.2997C12.2514 11.7098 12.1089 11.0237 12.1089 10.2415C12.1089 9.45928 12.2514 8.76989 12.5365 8.1733C12.8248 7.57339 13.2259 7.10606 13.7396 6.77131C14.2566 6.43324 14.8599 6.2642 15.5493 6.2642C15.947 6.2642 16.3397 6.33049 16.7275 6.46307C17.1153 6.59564 17.4683 6.81108 17.7865 7.10938C18.1047 7.40436 18.3582 7.79545 18.5471 8.28267C18.736 8.76989 18.8305 9.36979 18.8305 10.0824V10.5795H12.9441V9.56534H17.6373C17.6373 9.13447 17.5511 8.75 17.3788 8.41193C17.2098 8.07386 16.9678 7.80705 16.6529 7.61151C16.3414 7.41596 15.9735 7.31818 15.5493 7.31818C15.0819 7.31818 14.6776 7.43419 14.3362 7.66619C13.9981 7.89489 13.7379 8.19318 13.5556 8.56108C13.3734 8.92898 13.2822 9.32339 13.2822 9.74432V10.4205C13.2822 10.9972 13.3816 11.486 13.5805 11.8871C13.7827 12.2848 14.0627 12.5881 14.4207 12.7969C14.7787 13.0024 15.1946 13.1051 15.6686 13.1051C15.9768 13.1051 16.2552 13.062 16.5038 12.9759C16.7557 12.8864 16.9728 12.7538 17.1551 12.5781C17.3374 12.3991 17.4782 12.1771 17.5777 11.9119L18.7112 12.2301C18.5919 12.6146 18.3913 12.9527 18.1096 13.2443C17.8279 13.5327 17.4799 13.758 17.0656 13.9205C16.6513 14.0795 16.1856 14.1591 15.6686 14.1591ZM23.4988 14.1591C22.8625 14.1591 22.3007 13.9983 21.8135 13.6768C21.3262 13.352 20.9451 12.8946 20.67 12.3047C20.3949 11.7114 20.2574 11.0104 20.2574 10.2017C20.2574 9.39962 20.3949 8.7036 20.67 8.11364C20.9451 7.52367 21.3279 7.06794 21.8184 6.74645C22.309 6.42495 22.8757 6.2642 23.5187 6.2642C24.0159 6.2642 24.4086 6.34706 24.697 6.51278C24.9886 6.67519 25.2107 6.8608 25.3632 7.0696C25.519 7.27509 25.6399 7.44413 25.7261 7.5767H25.8255V3.81818H26.9988V14H25.8653V12.8267H25.7261C25.6399 12.9659 25.5173 13.1416 25.3582 13.3537C25.1991 13.5625 24.9721 13.7498 24.6771 13.9155C24.3821 14.0779 23.9894 14.1591 23.4988 14.1591ZM23.6579 13.1051C24.1286 13.1051 24.5263 12.9825 24.8511 12.7372C25.1759 12.4886 25.4228 12.1456 25.5919 11.7081C25.7609 11.2673 25.8454 10.7585 25.8454 10.1818C25.8454 9.61174 25.7626 9.11293 25.5968 8.68537C25.4311 8.2545 25.1859 7.91974 24.861 7.68111C24.5362 7.43916 24.1352 7.31818 23.6579 7.31818C23.1608 7.31818 22.7465 7.44579 22.415 7.70099C22.0869 7.95289 21.84 8.29593 21.6743 8.73011C21.5119 9.16098 21.4306 9.64489 21.4306 10.1818C21.4306 10.7254 21.5135 11.2192 21.6792 11.6634C21.8483 12.1042 22.0968 12.4555 22.425 12.7173C22.7564 12.9759 23.1674 13.1051 23.6579 13.1051ZM36.5691 6.36364V7.35795H32.6118V6.36364H36.5691ZM33.7652 4.53409H34.9385V11.8125C34.9385 12.1439 34.9865 12.3925 35.0826 12.5582C35.1821 12.7206 35.308 12.83 35.4605 12.8864C35.6163 12.9394 35.7803 12.9659 35.9527 12.9659C36.0819 12.9659 36.188 12.9593 36.2708 12.946C36.3537 12.9295 36.42 12.9162 36.4697 12.9062L36.7083 13.9602C36.6288 13.9901 36.5178 14.0199 36.3752 14.0497C36.2327 14.0829 36.0521 14.0994 35.8333 14.0994C35.5019 14.0994 35.1771 14.0282 34.8589 13.8857C34.544 13.7431 34.2822 13.526 34.0734 13.2344C33.8679 12.9427 33.7652 12.5748 33.7652 12.1307V4.53409ZM40.5812 14.179C40.0973 14.179 39.6582 14.0878 39.2637 13.9055C38.8693 13.7199 38.5561 13.4531 38.3241 13.1051C38.0921 12.7538 37.9761 12.3295 37.9761 11.8324C37.9761 11.3949 38.0623 11.0402 38.2346 10.7685C38.407 10.4934 38.6373 10.2779 38.9257 10.1222C39.214 9.96638 39.5322 9.85038 39.8802 9.77415C40.2315 9.6946 40.5845 9.63163 40.9392 9.58523C41.4032 9.52557 41.7794 9.48082 42.0677 9.45099C42.3594 9.41785 42.5715 9.36316 42.7041 9.28693C42.84 9.2107 42.9079 9.07812 42.9079 8.8892V8.84943C42.9079 8.3589 42.7737 7.97775 42.5052 7.70597C42.2401 7.43419 41.8374 7.2983 41.2971 7.2983C40.737 7.2983 40.2978 7.42093 39.9797 7.66619C39.6615 7.91146 39.4377 8.1733 39.3085 8.4517L38.1949 8.05398C38.3937 7.58996 38.6589 7.22869 38.9903 6.97017C39.3251 6.70833 39.6896 6.52604 40.0841 6.4233C40.4818 6.31723 40.8729 6.2642 41.2574 6.2642C41.5026 6.2642 41.7843 6.29403 42.1025 6.35369C42.424 6.41004 42.7339 6.5277 43.0322 6.70668C43.3338 6.88565 43.5841 7.15578 43.7829 7.51705C43.9818 7.87831 44.0812 8.36222 44.0812 8.96875V14H42.9079V12.9659H42.8483C42.7687 13.1316 42.6361 13.3089 42.4505 13.4979C42.2649 13.6868 42.018 13.8475 41.7098 13.9801C41.4015 14.1127 41.0253 14.179 40.5812 14.179ZM40.7602 13.125C41.2242 13.125 41.6153 13.0339 41.9335 12.8516C42.255 12.6693 42.4969 12.4339 42.6593 12.1456C42.8251 11.8572 42.9079 11.554 42.9079 11.2358V10.1619C42.8582 10.2216 42.7488 10.2763 42.5798 10.326C42.4141 10.3724 42.2218 10.4138 42.0031 10.4503C41.7877 10.4834 41.5772 10.5133 41.3717 10.5398C41.1695 10.563 41.0055 10.5829 40.8795 10.5994C40.5746 10.6392 40.2895 10.7038 40.0244 10.7933C39.7626 10.8795 39.5504 11.0104 39.388 11.1861C39.2289 11.3584 39.1494 11.5937 39.1494 11.892C39.1494 12.2997 39.3002 12.608 39.6018 12.8168C39.9067 13.0223 40.2929 13.125 40.7602 13.125ZM49.3051 17.0227C48.7384 17.0227 48.2511 16.9498 47.8435 16.804C47.4358 16.6615 47.0961 16.4725 46.8243 16.2372C46.5558 16.0052 46.342 15.7566 46.183 15.4915L47.1176 14.8352C47.2237 14.9744 47.3579 15.1335 47.5203 15.3125C47.6827 15.4948 47.9048 15.6522 48.1865 15.7848C48.4715 15.9207 48.8444 15.9886 49.3051 15.9886C49.9216 15.9886 50.4304 15.8395 50.8314 15.5412C51.2324 15.2429 51.433 14.7756 51.433 14.1392V12.5881H51.3335C51.2473 12.7273 51.1247 12.8996 50.9656 13.1051C50.8098 13.3073 50.5845 13.4879 50.2895 13.647C49.9978 13.8028 49.6034 13.8807 49.1063 13.8807C48.4898 13.8807 47.9363 13.7348 47.4457 13.4432C46.9585 13.1515 46.5724 12.7273 46.2874 12.1705C46.0056 11.6136 45.8648 10.9375 45.8648 10.142C45.8648 9.35985 46.0023 8.67874 46.2774 8.09872C46.5525 7.51539 46.9353 7.06463 47.4259 6.74645C47.9164 6.42495 48.4831 6.2642 49.1261 6.2642C49.6233 6.2642 50.0177 6.34706 50.3094 6.51278C50.6044 6.67519 50.8297 6.8608 50.9855 7.0696C51.1446 7.27509 51.2672 7.44413 51.3534 7.5767H51.4727V6.36364H52.6063V14.2188C52.6063 14.875 52.4571 15.4086 52.1588 15.8196C51.8638 16.2339 51.4661 16.5372 50.9656 16.7294C50.4685 16.925 49.915 17.0227 49.3051 17.0227ZM49.2653 12.8267C49.736 12.8267 50.1337 12.719 50.4585 12.5036C50.7833 12.2881 51.0303 11.9782 51.1993 11.5739C51.3683 11.1695 51.4528 10.6856 51.4528 10.1222C51.4528 9.57197 51.37 9.08641 51.2043 8.66548C51.0385 8.24455 50.7933 7.91477 50.4685 7.67614C50.1437 7.4375 49.7426 7.31818 49.2653 7.31818C48.7682 7.31818 48.3539 7.44413 48.0224 7.69602C47.6943 7.94792 47.4474 8.28598 47.2817 8.71023C47.1193 9.13447 47.0381 9.60511 47.0381 10.1222C47.0381 10.6525 47.1209 11.1214 47.2866 11.5291C47.4557 11.9335 47.7043 12.2517 48.0324 12.4837C48.3638 12.7124 48.7748 12.8267 49.2653 12.8267Z" fill="#37352F"/>
<path d="M-4.00006 0H1944V343H-4.00006V0Z" fill="#CCFFE2"/>
<path fill-rule="evenodd" clip-rule="evenodd" d="M1943.55 237.165V342.999H475.379C535.532 293.689 599.914 248.213 668.419 207.173C1082.63 -40.9789 1540.57 29.3668 1943.55 237.165Z" fill="#FFECEA"/>
<path fill-rule="evenodd" clip-rule="evenodd" d="M1373.87 169.08C1373.93 113.585 1408.92 58.5252 1467.21 46.2886C1518.96 35.4249 1554.8 83.747 1584.16 124.933C1611.76 163.654 1640.07 210.579 1611.16 248.223C1579.64 289.281 1518.29 294.69 1466.96 277.572C1415.17 260.296 1373.82 220.063 1373.87 169.08Z" fill="#0018A4"/>
<path fill-rule="evenodd" clip-rule="evenodd" d="M135.668 64.0355C166.613 63.0843 197.932 81.711 205.784 114.146C212.755 142.942 186.443 163.876 163.996 181.054C142.892 197.204 117.227 213.893 95.7255 198.369C72.2754 181.438 68.1763 147.166 76.8157 118.11C85.5344 88.7876 107.239 64.9093 135.668 64.0355Z" fill="white"/>
<rect x="-4" width="1944" height="100" fill="#0018A4"/>
<path d="M7.10158 47.65C7.10158 43.263 3.82158 39.696 -0.647418 39.532V55.768C3.82158 55.604 7.10158 52.037 7.10158 47.65ZM-0.647418 56.424V61.344C6.81458 61.18 12.6776 55.153 12.6776 47.65C12.6776 40.188 6.81458 34.12 -0.647418 33.956V38.876C4.23158 39.04 7.75758 42.935 7.75758 47.65C7.75758 52.365 4.23158 56.26 -0.647418 56.424ZM-6.87942 62V33.3H-0.975418C6.97858 33.3 13.3336 39.737 13.3336 47.65C13.3336 55.563 6.97858 62 -0.975418 62H-6.87942ZM-1.30342 55.768V39.532H-6.22342V55.768H-1.30342ZM-1.30342 56.424H-6.22342V61.344H-1.30342V56.424ZM-1.30342 38.876V33.956H-6.22342V38.876H-1.30342ZM26.5779 62.492C20.3049 62.492 15.2209 57.408 15.2209 51.135C15.2209 44.862 20.3049 39.778 26.5779 39.778C32.8509 39.778 37.9349 44.862 37.9349 51.135C37.9349 57.408 32.8509 62.492 26.5779 62.492ZM26.5779 61.836C32.4819 61.836 37.2789 57.039 37.2789 51.135C37.2789 45.231 32.4819 40.434 26.5779 40.434C20.6739 40.434 15.8769 45.231 15.8769 51.135C15.8769 57.039 20.6739 61.836 26.5779 61.836ZM26.5779 56.916C23.3799 56.916 20.7969 54.333 20.7969 51.135C20.7969 47.937 23.3799 45.354 26.5779 45.354C29.7759 45.354 32.3589 47.937 32.3589 51.135C32.3589 54.333 29.7759 56.916 26.5779 56.916ZM26.5779 56.26C29.4069 56.26 31.7029 53.964 31.7029 51.135C31.7029 48.306 29.4069 46.01 26.5779 46.01C23.7489 46.01 21.4529 48.306 21.4529 51.135C21.4529 53.964 23.7489 56.26 26.5779 56.26ZM40.8747 62V40.27H41.5307V45.969C42.4327 43.714 44.2367 41.869 46.4507 40.885V40.27H47.1067V40.639C48.0497 40.311 49.1157 40.106 50.1817 40.106C52.5597 40.106 54.7327 41.008 56.3727 42.484C58.0127 41.008 60.1857 40.106 62.5637 40.106C67.6887 40.106 71.8707 44.288 71.8707 49.413V62H71.2147V49.413C71.2147 44.657 67.3197 40.762 62.5637 40.762C60.3907 40.762 58.3817 41.582 56.8647 42.935C58.0947 44.206 58.9557 45.805 59.3247 47.609C59.9397 46.461 61.1697 45.682 62.5637 45.682C64.6137 45.682 66.2947 47.363 66.2947 49.413V62H65.6387V49.413C65.6387 47.732 64.2447 46.338 62.5637 46.338C60.8827 46.338 59.4887 47.732 59.4887 49.413V62H58.8327V49.413C58.8327 47.076 57.8897 44.944 56.3727 43.386C54.8557 44.944 53.9127 47.076 53.9127 49.413V62H53.2567V49.413C53.2567 47.732 51.8627 46.338 50.1817 46.338C48.5007 46.338 47.1067 47.732 47.1067 49.413V62H46.4507V41.623C43.5397 43.017 41.5307 46.01 41.5307 49.413V62H40.8747ZM47.1067 41.336V47.322C47.7627 46.338 48.9107 45.682 50.1817 45.682C51.5757 45.682 52.8057 46.461 53.4207 47.609C53.7897 45.805 54.6507 44.206 55.8807 42.935C54.3637 41.582 52.3547 40.762 50.1817 40.762C49.1157 40.762 48.0497 40.967 47.1067 41.336ZM102.889 55.522L100.265 62H99.6091L92.5981 44.698L89.5641 62H88.9081L92.1471 43.55L88.4981 34.448L83.6601 62H83.0041L88.0471 33.3H88.7031L92.3521 42.402L93.9511 33.3H94.6071L102.889 53.882L111.171 33.3H111.827L113.426 42.361L117.075 33.3H117.731L122.774 62H122.118L117.28 34.448L113.631 43.509L116.87 62H116.214L113.18 44.616L106.169 62H105.513L102.889 55.522ZM105.841 61.18L112.975 43.468L111.376 34.448L103.217 54.702L105.841 61.18ZM102.561 54.702L94.4021 34.448L92.8031 43.55L99.9371 61.18L102.561 54.702ZM141.145 42.115V60.155C143.892 58.474 146.065 55.071 146.065 51.135C146.065 47.199 143.892 43.796 141.145 42.115ZM135.364 39.778C137.209 39.778 138.931 40.229 140.489 41.008V40.27H141.145V41.377C143.441 42.648 145.204 44.944 146.065 47.322V40.27H146.721V62H146.065V54.907C145.245 57.244 143.441 59.663 141.145 60.934V62H140.489V61.262C138.931 62.041 137.209 62.492 135.364 62.492C129.091 62.492 124.007 57.408 124.007 51.135C124.007 44.862 129.091 39.778 135.364 39.778ZM135.364 61.836C137.209 61.836 138.972 61.385 140.489 60.565V53.841C139.505 55.645 137.578 56.916 135.364 56.916C132.166 56.916 129.583 54.333 129.583 51.135C129.583 47.937 132.166 45.354 135.364 45.354C137.578 45.354 139.505 46.625 140.489 48.47V41.746C138.972 40.926 137.209 40.434 135.364 40.434C129.46 40.434 124.663 45.231 124.663 51.135C124.663 57.039 129.46 61.836 135.364 61.836ZM135.364 56.26C138.234 56.26 140.489 53.964 140.489 51.135C140.489 48.306 138.234 46.01 135.364 46.01C132.535 46.01 130.239 48.306 130.239 51.135C130.239 53.964 132.535 56.26 135.364 56.26ZM150.902 62V40.27H151.558V46.461C152.46 44.124 154.223 42.197 156.478 41.09V40.27H157.134V40.762C158.282 40.311 159.512 40.065 160.824 40.065C166.277 40.065 170.746 44.534 170.746 49.987V62H170.09V49.987C170.09 44.903 165.908 40.721 160.824 40.721C159.512 40.721 158.282 41.008 157.134 41.5V47.691C157.913 46.461 159.266 45.641 160.824 45.641C163.202 45.641 165.17 47.609 165.17 49.987V62H164.514V49.987C164.514 47.978 162.833 46.297 160.824 46.297C158.815 46.297 157.134 47.978 157.134 49.987V62H156.478V41.828C153.567 43.386 151.558 46.461 151.558 49.987V62H150.902ZM174.605 62V40.27H175.261V62H174.605ZM180.837 40.27V62H180.181V40.27H180.837ZM180.181 38.138V31.25H180.837V38.138H180.181ZM175.261 31.25V38.138H174.605V31.25H175.261ZM190.591 60.155V42.115C187.844 43.796 185.671 47.199 185.671 51.135C185.671 55.071 187.844 58.474 190.591 60.155ZM196.372 62.492C194.527 62.492 192.805 62.041 191.247 61.262V71.02H190.591V60.893C188.295 59.622 186.491 57.285 185.671 54.948V71.02H185.015V40.27H185.671V47.363C186.491 44.985 188.295 42.607 190.591 41.336V40.27H191.247V41.008C192.805 40.229 194.527 39.778 196.372 39.778C202.645 39.778 207.729 44.862 207.729 51.135C207.729 57.408 202.645 62.492 196.372 62.492ZM196.372 56.916C194.158 56.916 192.231 55.645 191.247 53.8V60.524C192.764 61.344 194.527 61.836 196.372 61.836C202.276 61.836 207.073 57.039 207.073 51.135C207.073 45.231 202.276 40.434 196.372 40.434C194.527 40.434 192.764 40.885 191.247 41.705V48.429C192.231 46.625 194.158 45.354 196.372 45.354C199.57 45.354 202.153 47.937 202.153 51.135C202.153 54.333 199.57 56.916 196.372 56.916ZM196.372 46.01C193.502 46.01 191.247 48.306 191.247 51.135C191.247 53.964 193.502 56.26 196.372 56.26C199.201 56.26 201.497 53.964 201.497 51.135C201.497 48.306 199.201 46.01 196.372 46.01ZM230.196 40.27V62H229.54V55.809C228.638 58.146 226.875 60.073 224.62 61.18V62H223.964V61.508C222.816 61.959 221.586 62.205 220.274 62.205C214.821 62.205 210.352 57.736 210.352 52.283V40.27H211.008V52.283C211.008 57.367 215.19 61.549 220.274 61.549C221.586 61.549 222.816 61.262 223.964 60.77V54.579C223.185 55.809 221.832 56.629 220.274 56.629C217.896 56.629 215.928 54.661 215.928 52.283V40.27H216.584V52.283C216.584 54.292 218.265 55.973 220.274 55.973C222.283 55.973 223.964 54.292 223.964 52.283V40.27H224.62V60.442C227.531 58.884 229.54 55.809 229.54 52.283V40.27H230.196ZM235.039 31.25V62H234.383V31.25H235.039ZM240.615 31.25V62H239.959V31.25H240.615ZM260.702 42.115V60.155C263.449 58.474 265.622 55.071 265.622 51.135C265.622 47.199 263.449 43.796 260.702 42.115ZM254.921 39.778C256.766 39.778 258.488 40.229 260.046 41.008V40.27H260.702V41.377C262.998 42.648 264.761 44.944 265.622 47.322V40.27H266.278V62H265.622V54.907C264.802 57.244 262.998 59.663 260.702 60.934V62H260.046V61.262C258.488 62.041 256.766 62.492 254.921 62.492C248.648 62.492 243.564 57.408 243.564 51.135C243.564 44.862 248.648 39.778 254.921 39.778ZM254.921 61.836C256.766 61.836 258.529 61.385 260.046 60.565V53.841C259.062 55.645 257.135 56.916 254.921 56.916C251.723 56.916 249.14 54.333 249.14 51.135C249.14 47.937 251.723 45.354 254.921 45.354C257.135 45.354 259.062 46.625 260.046 48.47V41.746C258.529 40.926 256.766 40.434 254.921 40.434C249.017 40.434 244.22 45.231 244.22 51.135C244.22 57.039 249.017 61.836 254.921 61.836ZM254.921 56.26C257.791 56.26 260.046 53.964 260.046 51.135C260.046 48.306 257.791 46.01 254.921 46.01C252.092 46.01 249.796 48.306 249.796 51.135C249.796 53.964 252.092 56.26 254.921 56.26ZM272.509 40.926H269.27V40.27H272.509V33.3H273.165V40.27H278.085V33.3H278.741V40.27H281.98V40.926H278.741V45.846H281.98V46.502H278.741V62H278.085V46.502H273.165V62H272.509V46.502H269.27V45.846H272.509V40.926ZM278.085 40.926H273.165V45.846H278.085V40.926ZM284.953 62V40.27H285.609V62H284.953ZM291.185 40.27V62H290.529V40.27H291.185ZM290.529 38.138V31.25H291.185V38.138H290.529ZM285.609 31.25V38.138H284.953V31.25H285.609ZM305.49 62.492C299.217 62.492 294.133 57.408 294.133 51.135C294.133 44.862 299.217 39.778 305.49 39.778C311.763 39.778 316.847 44.862 316.847 51.135C316.847 57.408 311.763 62.492 305.49 62.492ZM305.49 61.836C311.394 61.836 316.191 57.039 316.191 51.135C316.191 45.231 311.394 40.434 305.49 40.434C299.586 40.434 294.789 45.231 294.789 51.135C294.789 57.039 299.586 61.836 305.49 61.836ZM305.49 56.916C302.292 56.916 299.709 54.333 299.709 51.135C299.709 47.937 302.292 45.354 305.49 45.354C308.688 45.354 311.271 47.937 311.271 51.135C311.271 54.333 308.688 56.916 305.49 56.916ZM305.49 56.26C308.319 56.26 310.615 53.964 310.615 51.135C310.615 48.306 308.319 46.01 305.49 46.01C302.661 46.01 300.365 48.306 300.365 51.135C300.365 53.964 302.661 56.26 305.49 56.26ZM319.787 62V40.27H320.443V46.461C321.345 44.124 323.108 42.197 325.363 41.09V40.27H326.019V40.762C327.167 40.311 328.397 40.065 329.709 40.065C335.162 40.065 339.631 44.534 339.631 49.987V62H338.975V49.987C338.975 44.903 334.793 40.721 329.709 40.721C328.397 40.721 327.167 41.008 326.019 41.5V47.691C326.798 46.461 328.151 45.641 329.709 45.641C332.087 45.641 334.055 47.609 334.055 49.987V62H333.399V49.987C333.399 47.978 331.718 46.297 329.709 46.297C327.7 46.297 326.019 47.978 326.019 49.987V62H325.363V41.828C322.452 43.386 320.443 46.461 320.443 49.987V62H319.787ZM366.612 47.65C366.612 43.263 363.332 39.696 358.863 39.532V55.768C363.332 55.604 366.612 52.037 366.612 47.65ZM358.863 56.424V61.344C366.325 61.18 372.188 55.153 372.188 47.65C372.188 40.188 366.325 34.12 358.863 33.956V38.876C363.742 39.04 367.268 42.935 367.268 47.65C367.268 52.365 363.742 56.26 358.863 56.424ZM352.631 62V33.3H358.535C366.489 33.3 372.844 39.737 372.844 47.65C372.844 55.563 366.489 62 358.535 62H352.631ZM358.207 55.768V39.532H353.287V55.768H358.207ZM358.207 56.424H353.287V61.344H358.207V56.424ZM358.207 38.876V33.956H353.287V38.876H358.207ZM386.089 62.492C379.816 62.492 374.732 57.408 374.732 51.135C374.732 44.862 379.816 39.778 386.089 39.778C392.362 39.778 397.446 44.862 397.446 51.135C397.446 57.408 392.362 62.492 386.089 62.492ZM386.089 61.836C391.993 61.836 396.79 57.039 396.79 51.135C396.79 45.231 391.993 40.434 386.089 40.434C380.185 40.434 375.388 45.231 375.388 51.135C375.388 57.039 380.185 61.836 386.089 61.836ZM386.089 56.916C382.891 56.916 380.308 54.333 380.308 51.135C380.308 47.937 382.891 45.354 386.089 45.354C389.287 45.354 391.87 47.937 391.87 51.135C391.87 54.333 389.287 56.916 386.089 56.916ZM386.089 56.26C388.918 56.26 391.214 53.964 391.214 51.135C391.214 48.306 388.918 46.01 386.089 46.01C383.26 46.01 380.964 48.306 380.964 51.135C380.964 53.964 383.26 56.26 386.089 56.26ZM400.385 62V40.27H401.041V45.969C401.943 43.714 403.747 41.869 405.961 40.885V40.27H406.617V40.639C407.56 40.311 408.626 40.106 409.692 40.106C412.07 40.106 414.243 41.008 415.883 42.484C417.523 41.008 419.696 40.106 422.074 40.106C427.199 40.106 431.381 44.288 431.381 49.413V62H430.725V49.413C430.725 44.657 426.83 40.762 422.074 40.762C419.901 40.762 417.892 41.582 416.375 42.935C417.605 44.206 418.466 45.805 418.835 47.609C419.45 46.461 420.68 45.682 422.074 45.682C424.124 45.682 425.805 47.363 425.805 49.413V62H425.149V49.413C425.149 47.732 423.755 46.338 422.074 46.338C420.393 46.338 418.999 47.732 418.999 49.413V62H418.343V49.413C418.343 47.076 417.4 44.944 415.883 43.386C414.366 44.944 413.423 47.076 413.423 49.413V62H412.767V49.413C412.767 47.732 411.373 46.338 409.692 46.338C408.011 46.338 406.617 47.732 406.617 49.413V62H405.961V41.623C403.05 43.017 401.041 46.01 401.041 49.413V62H400.385ZM406.617 41.336V47.322C407.273 46.338 408.421 45.682 409.692 45.682C411.086 45.682 412.316 46.461 412.931 47.609C413.3 45.805 414.161 44.206 415.391 42.935C413.874 41.582 411.865 40.762 409.692 40.762C408.626 40.762 407.56 40.967 406.617 41.336ZM462.4 55.522L459.776 62H459.12L452.109 44.698L449.075 62H448.419L451.658 43.55L448.009 34.448L443.171 62H442.515L447.558 33.3H448.214L451.863 42.402L453.462 33.3H454.118L462.4 53.882L470.682 33.3H471.338L472.937 42.361L476.586 33.3H477.242L482.285 62H481.629L476.791 34.448L473.142 43.509L476.381 62H475.725L472.691 44.616L465.68 62H465.024L462.4 55.522ZM465.352 61.18L472.486 43.468L470.887 34.448L462.728 54.702L465.352 61.18ZM462.072 54.702L453.913 34.448L452.314 43.55L459.448 61.18L462.072 54.702ZM500.656 42.115V60.155C503.403 58.474 505.576 55.071 505.576 51.135C505.576 47.199 503.403 43.796 500.656 42.115ZM494.875 39.778C496.72 39.778 498.442 40.229 500 41.008V40.27H500.656V41.377C502.952 42.648 504.715 44.944 505.576 47.322V40.27H506.232V62H505.576V54.907C504.756 57.244 502.952 59.663 500.656 60.934V62H500V61.262C498.442 62.041 496.72 62.492 494.875 62.492C488.602 62.492 483.518 57.408 483.518 51.135C483.518 44.862 488.602 39.778 494.875 39.778ZM494.875 61.836C496.72 61.836 498.483 61.385 500 60.565V53.841C499.016 55.645 497.089 56.916 494.875 56.916C491.677 56.916 489.094 54.333 489.094 51.135C489.094 47.937 491.677 45.354 494.875 45.354C497.089 45.354 499.016 46.625 500 48.47V41.746C498.483 40.926 496.72 40.434 494.875 40.434C488.971 40.434 484.174 45.231 484.174 51.135C484.174 57.039 488.971 61.836 494.875 61.836ZM494.875 56.26C497.745 56.26 500 53.964 500 51.135C500 48.306 497.745 46.01 494.875 46.01C492.046 46.01 489.75 48.306 489.75 51.135C489.75 53.964 492.046 56.26 494.875 56.26ZM510.413 62V40.27H511.069V46.461C511.971 44.124 513.734 42.197 515.989 41.09V40.27H516.645V40.762C517.793 40.311 519.023 40.065 520.335 40.065C525.788 40.065 530.257 44.534 530.257 49.987V62H529.601V49.987C529.601 44.903 525.419 40.721 520.335 40.721C519.023 40.721 517.793 41.008 516.645 41.5V47.691C517.424 46.461 518.777 45.641 520.335 45.641C522.713 45.641 524.681 47.609 524.681 49.987V62H524.025V49.987C524.025 47.978 522.344 46.297 520.335 46.297C518.326 46.297 516.645 47.978 516.645 49.987V62H515.989V41.828C513.078 43.386 511.069 46.461 511.069 49.987V62H510.413ZM534.116 62V40.27H534.772V62H534.116ZM540.348 40.27V62H539.692V40.27H540.348ZM539.692 38.138V31.25H540.348V38.138H539.692ZM534.772 31.25V38.138H534.116V31.25H534.772ZM550.102 60.155V42.115C547.355 43.796 545.182 47.199 545.182 51.135C545.182 55.071 547.355 58.474 550.102 60.155ZM555.883 62.492C554.038 62.492 552.316 62.041 550.758 61.262V71.02H550.102V60.893C547.806 59.622 546.002 57.285 545.182 54.948V71.02H544.526V40.27H545.182V47.363C546.002 44.985 547.806 42.607 550.102 41.336V40.27H550.758V41.008C552.316 40.229 554.038 39.778 555.883 39.778C562.156 39.778 567.24 44.862 567.24 51.135C567.24 57.408 562.156 62.492 555.883 62.492ZM555.883 56.916C553.669 56.916 551.742 55.645 550.758 53.8V60.524C552.275 61.344 554.038 61.836 555.883 61.836C561.787 61.836 566.584 57.039 566.584 51.135C566.584 45.231 561.787 40.434 555.883 40.434C554.038 40.434 552.275 40.885 550.758 41.705V48.429C551.742 46.625 553.669 45.354 555.883 45.354C559.081 45.354 561.664 47.937 561.664 51.135C561.664 54.333 559.081 56.916 555.883 56.916ZM555.883 46.01C553.013 46.01 550.758 48.306 550.758 51.135C550.758 53.964 553.013 56.26 555.883 56.26C558.712 56.26 561.008 53.964 561.008 51.135C561.008 48.306 558.712 46.01 555.883 46.01ZM589.707 40.27V62H589.051V55.809C588.149 58.146 586.386 60.073 584.131 61.18V62H583.475V61.508C582.327 61.959 581.097 62.205 579.785 62.205C574.332 62.205 569.863 57.736 569.863 52.283V40.27H570.519V52.283C570.519 57.367 574.701 61.549 579.785 61.549C581.097 61.549 582.327 61.262 583.475 60.77V54.579C582.696 55.809 581.343 56.629 579.785 56.629C577.407 56.629 575.439 54.661 575.439 52.283V40.27H576.095V52.283C576.095 54.292 577.776 55.973 579.785 55.973C581.794 55.973 583.475 54.292 583.475 52.283V40.27H584.131V60.442C587.042 58.884 589.051 55.809 589.051 52.283V40.27H589.707ZM594.55 31.25V62H593.894V31.25H594.55ZM600.126 31.25V62H599.47V31.25H600.126ZM620.212 42.115V60.155C622.959 58.474 625.132 55.071 625.132 51.135C625.132 47.199 622.959 43.796 620.212 42.115ZM614.431 39.778C616.276 39.778 617.998 40.229 619.556 41.008V40.27H620.212V41.377C622.508 42.648 624.271 44.944 625.132 47.322V40.27H625.788V62H625.132V54.907C624.312 57.244 622.508 59.663 620.212 60.934V62H619.556V61.262C617.998 62.041 616.276 62.492 614.431 62.492C608.158 62.492 603.074 57.408 603.074 51.135C603.074 44.862 608.158 39.778 614.431 39.778ZM614.431 61.836C616.276 61.836 618.039 61.385 619.556 60.565V53.841C618.572 55.645 616.645 56.916 614.431 56.916C611.233 56.916 608.65 54.333 608.65 51.135C608.65 47.937 611.233 45.354 614.431 45.354C616.645 45.354 618.572 46.625 619.556 48.47V41.746C618.039 40.926 616.276 40.434 614.431 40.434C608.527 40.434 603.73 45.231 603.73 51.135C603.73 57.039 608.527 61.836 614.431 61.836ZM614.431 56.26C617.301 56.26 619.556 53.964 619.556 51.135C619.556 48.306 617.301 46.01 614.431 46.01C611.602 46.01 609.306 48.306 609.306 51.135C609.306 53.964 611.602 56.26 614.431 56.26ZM632.019 40.926H628.78V40.27H632.019V33.3H632.675V40.27H637.595V33.3H638.251V40.27H641.49V40.926H638.251V45.846H641.49V46.502H638.251V62H637.595V46.502H632.675V62H632.019V46.502H628.78V45.846H632.019V40.926ZM637.595 40.926H632.675V45.846H637.595V40.926ZM644.464 62V40.27H645.12V62H644.464ZM650.696 40.27V62H650.04V40.27H650.696ZM650.04 38.138V31.25H650.696V38.138H650.04ZM645.12 31.25V38.138H644.464V31.25H645.12ZM665.001 62.492C658.728 62.492 653.644 57.408 653.644 51.135C653.644 44.862 658.728 39.778 665.001 39.778C671.274 39.778 676.358 44.862 676.358 51.135C676.358 57.408 671.274 62.492 665.001 62.492ZM665.001 61.836C670.905 61.836 675.702 57.039 675.702 51.135C675.702 45.231 670.905 40.434 665.001 40.434C659.097 40.434 654.3 45.231 654.3 51.135C654.3 57.039 659.097 61.836 665.001 61.836ZM665.001 56.916C661.803 56.916 659.22 54.333 659.22 51.135C659.22 47.937 661.803 45.354 665.001 45.354C668.199 45.354 670.782 47.937 670.782 51.135C670.782 54.333 668.199 56.916 665.001 56.916ZM665.001 56.26C667.83 56.26 670.126 53.964 670.126 51.135C670.126 48.306 667.83 46.01 665.001 46.01C662.172 46.01 659.876 48.306 659.876 51.135C659.876 53.964 662.172 56.26 665.001 56.26ZM679.298 62V40.27H679.954V46.461C680.856 44.124 682.619 42.197 684.874 41.09V40.27H685.53V40.762C686.678 40.311 687.908 40.065 689.22 40.065C694.673 40.065 699.142 44.534 699.142 49.987V62H698.486V49.987C698.486 44.903 694.304 40.721 689.22 40.721C687.908 40.721 686.678 41.008 685.53 41.5V47.691C686.309 46.461 687.662 45.641 689.22 45.641C691.598 45.641 693.566 47.609 693.566 49.987V62H692.91V49.987C692.91 47.978 691.229 46.297 689.22 46.297C687.211 46.297 685.53 47.978 685.53 49.987V62H684.874V41.828C681.963 43.386 679.954 46.461 679.954 49.987V62H679.298ZM726.123 47.65C726.123 43.263 722.843 39.696 718.374 39.532V55.768C722.843 55.604 726.123 52.037 726.123 47.65ZM718.374 56.424V61.344C725.836 61.18 731.699 55.153 731.699 47.65C731.699 40.188 725.836 34.12 718.374 33.956V38.876C723.253 39.04 726.779 42.935 726.779 47.65C726.779 52.365 723.253 56.26 718.374 56.424ZM712.142 62V33.3H718.046C726 33.3 732.355 39.737 732.355 47.65C732.355 55.563 726 62 718.046 62H712.142ZM717.718 55.768V39.532H712.798V55.768H717.718ZM717.718 56.424H712.798V61.344H717.718V56.424ZM717.718 38.876V33.956H712.798V38.876H717.718ZM745.599 62.492C739.326 62.492 734.242 57.408 734.242 51.135C734.242 44.862 739.326 39.778 745.599 39.778C751.872 39.778 756.956 44.862 756.956 51.135C756.956 57.408 751.872 62.492 745.599 62.492ZM745.599 61.836C751.503 61.836 756.3 57.039 756.3 51.135C756.3 45.231 751.503 40.434 745.599 40.434C739.695 40.434 734.898 45.231 734.898 51.135C734.898 57.039 739.695 61.836 745.599 61.836ZM745.599 56.916C742.401 56.916 739.818 54.333 739.818 51.135C739.818 47.937 742.401 45.354 745.599 45.354C748.797 45.354 751.38 47.937 751.38 51.135C751.38 54.333 748.797 56.916 745.599 56.916ZM745.599 56.26C748.428 56.26 750.724 53.964 750.724 51.135C750.724 48.306 748.428 46.01 745.599 46.01C742.77 46.01 740.474 48.306 740.474 51.135C740.474 53.964 742.77 56.26 745.599 56.26ZM759.896 62V40.27H760.552V45.969C761.454 43.714 763.258 41.869 765.472 40.885V40.27H766.128V40.639C767.071 40.311 768.137 40.106 769.203 40.106C771.581 40.106 773.754 41.008 775.394 42.484C777.034 41.008 779.207 40.106 781.585 40.106C786.71 40.106 790.892 44.288 790.892 49.413V62H790.236V49.413C790.236 44.657 786.341 40.762 781.585 40.762C779.412 40.762 777.403 41.582 775.886 42.935C777.116 44.206 777.977 45.805 778.346 47.609C778.961 46.461 780.191 45.682 781.585 45.682C783.635 45.682 785.316 47.363 785.316 49.413V62H784.66V49.413C784.66 47.732 783.266 46.338 781.585 46.338C779.904 46.338 778.51 47.732 778.51 49.413V62H777.854V49.413C777.854 47.076 776.911 44.944 775.394 43.386C773.877 44.944 772.934 47.076 772.934 49.413V62H772.278V49.413C772.278 47.732 770.884 46.338 769.203 46.338C767.522 46.338 766.128 47.732 766.128 49.413V62H765.472V41.623C762.561 43.017 760.552 46.01 760.552 49.413V62H759.896ZM766.128 41.336V47.322C766.784 46.338 767.932 45.682 769.203 45.682C770.597 45.682 771.827 46.461 772.442 47.609C772.811 45.805 773.672 44.206 774.902 42.935C773.385 41.582 771.376 40.762 769.203 40.762C768.137 40.762 767.071 40.967 766.128 41.336ZM821.911 55.522L819.287 62H818.631L811.62 44.698L808.586 62H807.93L811.169 43.55L807.52 34.448L802.682 62H802.026L807.069 33.3H807.725L811.374 42.402L812.973 33.3H813.629L821.911 53.882L830.193 33.3H830.849L832.448 42.361L836.097 33.3H836.753L841.796 62H841.14L836.302 34.448L832.653 43.509L835.892 62H835.236L832.202 44.616L825.191 62H824.535L821.911 55.522ZM824.863 61.18L831.997 43.468L830.398 34.448L822.239 54.702L824.863 61.18ZM821.583 54.702L813.424 34.448L811.825 43.55L818.959 61.18L821.583 54.702ZM860.166 42.115V60.155C862.913 58.474 865.086 55.071 865.086 51.135C865.086 47.199 862.913 43.796 860.166 42.115ZM854.385 39.778C856.23 39.778 857.952 40.229 859.51 41.008V40.27H860.166V41.377C862.462 42.648 864.225 44.944 865.086 47.322V40.27H865.742V62H865.086V54.907C864.266 57.244 862.462 59.663 860.166 60.934V62H859.51V61.262C857.952 62.041 856.23 62.492 854.385 62.492C848.112 62.492 843.028 57.408 843.028 51.135C843.028 44.862 848.112 39.778 854.385 39.778ZM854.385 61.836C856.23 61.836 857.993 61.385 859.51 60.565V53.841C858.526 55.645 856.599 56.916 854.385 56.916C851.187 56.916 848.604 54.333 848.604 51.135C848.604 47.937 851.187 45.354 854.385 45.354C856.599 45.354 858.526 46.625 859.51 48.47V41.746C857.993 40.926 856.23 40.434 854.385 40.434C848.481 40.434 843.684 45.231 843.684 51.135C843.684 57.039 848.481 61.836 854.385 61.836ZM854.385 56.26C857.255 56.26 859.51 53.964 859.51 51.135C859.51 48.306 857.255 46.01 854.385 46.01C851.556 46.01 849.26 48.306 849.26 51.135C849.26 53.964 851.556 56.26 854.385 56.26ZM869.924 62V40.27H870.58V46.461C871.482 44.124 873.245 42.197 875.5 41.09V40.27H876.156V40.762C877.304 40.311 878.534 40.065 879.846 40.065C885.299 40.065 889.768 44.534 889.768 49.987V62H889.112V49.987C889.112 44.903 884.93 40.721 879.846 40.721C878.534 40.721 877.304 41.008 876.156 41.5V47.691C876.935 46.461 878.288 45.641 879.846 45.641C882.224 45.641 884.192 47.609 884.192 49.987V62H883.536V49.987C883.536 47.978 881.855 46.297 879.846 46.297C877.837 46.297 876.156 47.978 876.156 49.987V62H875.5V41.828C872.589 43.386 870.58 46.461 870.58 49.987V62H869.924ZM893.627 62V40.27H894.283V62H893.627ZM899.859 40.27V62H899.203V40.27H899.859ZM899.203 38.138V31.25H899.859V38.138H899.203ZM894.283 31.25V38.138H893.627V31.25H894.283ZM909.613 60.155V42.115C906.866 43.796 904.693 47.199 904.693 51.135C904.693 55.071 906.866 58.474 909.613 60.155ZM915.394 62.492C913.549 62.492 911.827 62.041 910.269 61.262V71.02H909.613V60.893C907.317 59.622 905.513 57.285 904.693 54.948V71.02H904.037V40.27H904.693V47.363C905.513 44.985 907.317 42.607 909.613 41.336V40.27H910.269V41.008C911.827 40.229 913.549 39.778 915.394 39.778C921.667 39.778 926.751 44.862 926.751 51.135C926.751 57.408 921.667 62.492 915.394 62.492ZM915.394 56.916C913.18 56.916 911.253 55.645 910.269 53.8V60.524C911.786 61.344 913.549 61.836 915.394 61.836C921.298 61.836 926.095 57.039 926.095 51.135C926.095 45.231 921.298 40.434 915.394 40.434C913.549 40.434 911.786 40.885 910.269 41.705V48.429C911.253 46.625 913.18 45.354 915.394 45.354C918.592 45.354 921.175 47.937 921.175 51.135C921.175 54.333 918.592 56.916 915.394 56.916ZM915.394 46.01C912.524 46.01 910.269 48.306 910.269 51.135C910.269 53.964 912.524 56.26 915.394 56.26C918.223 56.26 920.519 53.964 920.519 51.135C920.519 48.306 918.223 46.01 915.394 46.01ZM949.218 40.27V62H948.562V55.809C947.66 58.146 945.897 60.073 943.642 61.18V62H942.986V61.508C941.838 61.959 940.608 62.205 939.296 62.205C933.843 62.205 929.374 57.736 929.374 52.283V40.27H930.03V52.283C930.03 57.367 934.212 61.549 939.296 61.549C940.608 61.549 941.838 61.262 942.986 60.77V54.579C942.207 55.809 940.854 56.629 939.296 56.629C936.918 56.629 934.95 54.661 934.95 52.283V40.27H935.606V52.283C935.606 54.292 937.287 55.973 939.296 55.973C941.305 55.973 942.986 54.292 942.986 52.283V40.27H943.642V60.442C946.553 58.884 948.562 55.809 948.562 52.283V40.27H949.218ZM954.061 31.25V62H953.405V31.25H954.061ZM959.637 31.25V62H958.981V31.25H959.637ZM979.723 42.115V60.155C982.47 58.474 984.643 55.071 984.643 51.135C984.643 47.199 982.47 43.796 979.723 42.115ZM973.942 39.778C975.787 39.778 977.509 40.229 979.067 41.008V40.27H979.723V41.377C982.019 42.648 983.782 44.944 984.643 47.322V40.27H985.299V62H984.643V54.907C983.823 57.244 982.019 59.663 979.723 60.934V62H979.067V61.262C977.509 62.041 975.787 62.492 973.942 62.492C967.669 62.492 962.585 57.408 962.585 51.135C962.585 44.862 967.669 39.778 973.942 39.778ZM973.942 61.836C975.787 61.836 977.55 61.385 979.067 60.565V53.841C978.083 55.645 976.156 56.916 973.942 56.916C970.744 56.916 968.161 54.333 968.161 51.135C968.161 47.937 970.744 45.354 973.942 45.354C976.156 45.354 978.083 46.625 979.067 48.47V41.746C977.55 40.926 975.787 40.434 973.942 40.434C968.038 40.434 963.241 45.231 963.241 51.135C963.241 57.039 968.038 61.836 973.942 61.836ZM973.942 56.26C976.812 56.26 979.067 53.964 979.067 51.135C979.067 48.306 976.812 46.01 973.942 46.01C971.113 46.01 968.817 48.306 968.817 51.135C968.817 53.964 971.113 56.26 973.942 56.26ZM991.53 40.926H988.291V40.27H991.53V33.3H992.186V40.27H997.106V33.3H997.762V40.27H1001V40.926H997.762V45.846H1001V46.502H997.762V62H997.106V46.502H992.186V62H991.53V46.502H988.291V45.846H991.53V40.926ZM997.106 40.926H992.186V45.846H997.106V40.926ZM1003.97 62V40.27H1004.63V62H1003.97ZM1010.21 40.27V62H1009.55V40.27H1010.21ZM1009.55 38.138V31.25H1010.21V38.138H1009.55ZM1004.63 31.25V38.138H1003.97V31.25H1004.63ZM1024.51 62.492C1018.24 62.492 1013.15 57.408 1013.15 51.135C1013.15 44.862 1018.24 39.778 1024.51 39.778C1030.78 39.778 1035.87 44.862 1035.87 51.135C1035.87 57.408 1030.78 62.492 1024.51 62.492ZM1024.51 61.836C1030.42 61.836 1035.21 57.039 1035.21 51.135C1035.21 45.231 1030.42 40.434 1024.51 40.434C1018.61 40.434 1013.81 45.231 1013.81 51.135C1013.81 57.039 1018.61 61.836 1024.51 61.836ZM1024.51 56.916C1021.31 56.916 1018.73 54.333 1018.73 51.135C1018.73 47.937 1021.31 45.354 1024.51 45.354C1027.71 45.354 1030.29 47.937 1030.29 51.135C1030.29 54.333 1027.71 56.916 1024.51 56.916ZM1024.51 56.26C1027.34 56.26 1029.64 53.964 1029.64 51.135C1029.64 48.306 1027.34 46.01 1024.51 46.01C1021.68 46.01 1019.39 48.306 1019.39 51.135C1019.39 53.964 1021.68 56.26 1024.51 56.26ZM1038.81 62V40.27H1039.46V46.461C1040.37 44.124 1042.13 42.197 1044.38 41.09V40.27H1045.04V40.762C1046.19 40.311 1047.42 40.065 1048.73 40.065C1054.18 40.065 1058.65 44.534 1058.65 49.987V62H1058V49.987C1058 44.903 1053.81 40.721 1048.73 40.721C1047.42 40.721 1046.19 41.008 1045.04 41.5V47.691C1045.82 46.461 1047.17 45.641 1048.73 45.641C1051.11 45.641 1053.08 47.609 1053.08 49.987V62H1052.42V49.987C1052.42 47.978 1050.74 46.297 1048.73 46.297C1046.72 46.297 1045.04 47.978 1045.04 49.987V62H1044.38V41.828C1041.47 43.386 1039.46 46.461 1039.46 49.987V62H1038.81ZM1085.63 47.65C1085.63 43.263 1082.35 39.696 1077.88 39.532V55.768C1082.35 55.604 1085.63 52.037 1085.63 47.65ZM1077.88 56.424V61.344C1085.35 61.18 1091.21 55.153 1091.21 47.65C1091.21 40.188 1085.35 34.12 1077.88 33.956V38.876C1082.76 39.04 1086.29 42.935 1086.29 47.65C1086.29 52.365 1082.76 56.26 1077.88 56.424ZM1071.65 62V33.3H1077.56C1085.51 33.3 1091.87 39.737 1091.87 47.65C1091.87 55.563 1085.51 62 1077.56 62H1071.65ZM1077.23 55.768V39.532H1072.31V55.768H1077.23ZM1077.23 56.424H1072.31V61.344H1077.23V56.424ZM1077.23 38.876V33.956H1072.31V38.876H1077.23ZM1105.11 62.492C1098.84 62.492 1093.75 57.408 1093.75 51.135C1093.75 44.862 1098.84 39.778 1105.11 39.778C1111.38 39.778 1116.47 44.862 1116.47 51.135C1116.47 57.408 1111.38 62.492 1105.11 62.492ZM1105.11 61.836C1111.01 61.836 1115.81 57.039 1115.81 51.135C1115.81 45.231 1111.01 40.434 1105.11 40.434C1099.21 40.434 1094.41 45.231 1094.41 51.135C1094.41 57.039 1099.21 61.836 1105.11 61.836ZM1105.11 56.916C1101.91 56.916 1099.33 54.333 1099.33 51.135C1099.33 47.937 1101.91 45.354 1105.11 45.354C1108.31 45.354 1110.89 47.937 1110.89 51.135C1110.89 54.333 1108.31 56.916 1105.11 56.916ZM1105.11 56.26C1107.94 56.26 1110.24 53.964 1110.24 51.135C1110.24 48.306 1107.94 46.01 1105.11 46.01C1102.28 46.01 1099.99 48.306 1099.99 51.135C1099.99 53.964 1102.28 56.26 1105.11 56.26ZM1119.41 62V40.27H1120.06V45.969C1120.96 43.714 1122.77 41.869 1124.98 40.885V40.27H1125.64V40.639C1126.58 40.311 1127.65 40.106 1128.71 40.106C1131.09 40.106 1133.26 41.008 1134.9 42.484C1136.54 41.008 1138.72 40.106 1141.1 40.106C1146.22 40.106 1150.4 44.288 1150.4 49.413V62H1149.75V49.413C1149.75 44.657 1145.85 40.762 1141.1 40.762C1138.92 40.762 1136.91 41.582 1135.4 42.935C1136.63 44.206 1137.49 45.805 1137.86 47.609C1138.47 46.461 1139.7 45.682 1141.1 45.682C1143.15 45.682 1144.83 47.363 1144.83 49.413V62H1144.17V49.413C1144.17 47.732 1142.78 46.338 1141.1 46.338C1139.41 46.338 1138.02 47.732 1138.02 49.413V62H1137.36V49.413C1137.36 47.076 1136.42 44.944 1134.9 43.386C1133.39 44.944 1132.44 47.076 1132.44 49.413V62H1131.79V49.413C1131.79 47.732 1130.39 46.338 1128.71 46.338C1127.03 46.338 1125.64 47.732 1125.64 49.413V62H1124.98V41.623C1122.07 43.017 1120.06 46.01 1120.06 49.413V62H1119.41ZM1125.64 41.336V47.322C1126.29 46.338 1127.44 45.682 1128.71 45.682C1130.11 45.682 1131.34 46.461 1131.95 47.609C1132.32 45.805 1133.18 44.206 1134.41 42.935C1132.9 41.582 1130.89 40.762 1128.71 40.762C1127.65 40.762 1126.58 40.967 1125.64 41.336ZM1181.42 55.522L1178.8 62H1178.14L1171.13 44.698L1168.1 62H1167.44L1170.68 43.55L1167.03 34.448L1162.19 62H1161.54L1166.58 33.3H1167.24L1170.88 42.402L1172.48 33.3H1173.14L1181.42 53.882L1189.7 33.3H1190.36L1191.96 42.361L1195.61 33.3H1196.26L1201.31 62H1200.65L1195.81 34.448L1192.16 43.509L1195.4 62H1194.75L1191.71 44.616L1184.7 62H1184.05L1181.42 55.522ZM1184.37 61.18L1191.51 43.468L1189.91 34.448L1181.75 54.702L1184.37 61.18ZM1181.09 54.702L1172.93 34.448L1171.34 43.55L1178.47 61.18L1181.09 54.702ZM1219.68 42.115V60.155C1222.42 58.474 1224.6 55.071 1224.6 51.135C1224.6 47.199 1222.42 43.796 1219.68 42.115ZM1213.9 39.778C1215.74 39.778 1217.46 40.229 1219.02 41.008V40.27H1219.68V41.377C1221.97 42.648 1223.74 44.944 1224.6 47.322V40.27H1225.25V62H1224.6V54.907C1223.78 57.244 1221.97 59.663 1219.68 60.934V62H1219.02V61.262C1217.46 62.041 1215.74 62.492 1213.9 62.492C1207.62 62.492 1202.54 57.408 1202.54 51.135C1202.54 44.862 1207.62 39.778 1213.9 39.778ZM1213.9 61.836C1215.74 61.836 1217.5 61.385 1219.02 60.565V53.841C1218.04 55.645 1216.11 56.916 1213.9 56.916C1210.7 56.916 1208.12 54.333 1208.12 51.135C1208.12 47.937 1210.7 45.354 1213.9 45.354C1216.11 45.354 1218.04 46.625 1219.02 48.47V41.746C1217.5 40.926 1215.74 40.434 1213.9 40.434C1207.99 40.434 1203.2 45.231 1203.2 51.135C1203.2 57.039 1207.99 61.836 1213.9 61.836ZM1213.9 56.26C1216.77 56.26 1219.02 53.964 1219.02 51.135C1219.02 48.306 1216.77 46.01 1213.9 46.01C1211.07 46.01 1208.77 48.306 1208.77 51.135C1208.77 53.964 1211.07 56.26 1213.9 56.26ZM1229.43 62V40.27H1230.09V46.461C1230.99 44.124 1232.76 42.197 1235.01 41.09V40.27H1235.67V40.762C1236.81 40.311 1238.04 40.065 1239.36 40.065C1244.81 40.065 1249.28 44.534 1249.28 49.987V62H1248.62V49.987C1248.62 44.903 1244.44 40.721 1239.36 40.721C1238.04 40.721 1236.81 41.008 1235.67 41.5V47.691C1236.45 46.461 1237.8 45.641 1239.36 45.641C1241.73 45.641 1243.7 47.609 1243.7 49.987V62H1243.05V49.987C1243.05 47.978 1241.37 46.297 1239.36 46.297C1237.35 46.297 1235.67 47.978 1235.67 49.987V62H1235.01V41.828C1232.1 43.386 1230.09 46.461 1230.09 49.987V62H1229.43ZM1253.14 62V40.27H1253.79V62H1253.14ZM1259.37 40.27V62H1258.71V40.27H1259.37ZM1258.71 38.138V31.25H1259.37V38.138H1258.71ZM1253.79 31.25V38.138H1253.14V31.25H1253.79ZM1269.12 60.155V42.115C1266.38 43.796 1264.2 47.199 1264.2 51.135C1264.2 55.071 1266.38 58.474 1269.12 60.155ZM1274.9 62.492C1273.06 62.492 1271.34 62.041 1269.78 61.262V71.02H1269.12V60.893C1266.83 59.622 1265.02 57.285 1264.2 54.948V71.02H1263.55V40.27H1264.2V47.363C1265.02 44.985 1266.83 42.607 1269.12 41.336V40.27H1269.78V41.008C1271.34 40.229 1273.06 39.778 1274.9 39.778C1281.18 39.778 1286.26 44.862 1286.26 51.135C1286.26 57.408 1281.18 62.492 1274.9 62.492ZM1274.9 56.916C1272.69 56.916 1270.76 55.645 1269.78 53.8V60.524C1271.3 61.344 1273.06 61.836 1274.9 61.836C1280.81 61.836 1285.61 57.039 1285.61 51.135C1285.61 45.231 1280.81 40.434 1274.9 40.434C1273.06 40.434 1271.3 40.885 1269.78 41.705V48.429C1270.76 46.625 1272.69 45.354 1274.9 45.354C1278.1 45.354 1280.69 47.937 1280.69 51.135C1280.69 54.333 1278.1 56.916 1274.9 56.916ZM1274.9 46.01C1272.03 46.01 1269.78 48.306 1269.78 51.135C1269.78 53.964 1272.03 56.26 1274.9 56.26C1277.73 56.26 1280.03 53.964 1280.03 51.135C1280.03 48.306 1277.73 46.01 1274.9 46.01ZM1308.73 40.27V62H1308.07V55.809C1307.17 58.146 1305.41 60.073 1303.15 61.18V62H1302.5V61.508C1301.35 61.959 1300.12 62.205 1298.81 62.205C1293.35 62.205 1288.88 57.736 1288.88 52.283V40.27H1289.54V52.283C1289.54 57.367 1293.72 61.549 1298.81 61.549C1300.12 61.549 1301.35 61.262 1302.5 60.77V54.579C1301.72 55.809 1300.36 56.629 1298.81 56.629C1296.43 56.629 1294.46 54.661 1294.46 52.283V40.27H1295.12V52.283C1295.12 54.292 1296.8 55.973 1298.81 55.973C1300.82 55.973 1302.5 54.292 1302.5 52.283V40.27H1303.15V60.442C1306.06 58.884 1308.07 55.809 1308.07 52.283V40.27H1308.73ZM1313.57 31.25V62H1312.92V31.25H1313.57ZM1319.15 31.25V62H1318.49V31.25H1319.15ZM1339.23 42.115V60.155C1341.98 58.474 1344.15 55.071 1344.15 51.135C1344.15 47.199 1341.98 43.796 1339.23 42.115ZM1333.45 39.778C1335.3 39.778 1337.02 40.229 1338.58 41.008V40.27H1339.23V41.377C1341.53 42.648 1343.29 44.944 1344.15 47.322V40.27H1344.81V62H1344.15V54.907C1343.33 57.244 1341.53 59.663 1339.23 60.934V62H1338.58V61.262C1337.02 62.041 1335.3 62.492 1333.45 62.492C1327.18 62.492 1322.1 57.408 1322.1 51.135C1322.1 44.862 1327.18 39.778 1333.45 39.778ZM1333.45 61.836C1335.3 61.836 1337.06 61.385 1338.58 60.565V53.841C1337.59 55.645 1335.67 56.916 1333.45 56.916C1330.25 56.916 1327.67 54.333 1327.67 51.135C1327.67 47.937 1330.25 45.354 1333.45 45.354C1335.67 45.354 1337.59 46.625 1338.58 48.47V41.746C1337.06 40.926 1335.3 40.434 1333.45 40.434C1327.55 40.434 1322.75 45.231 1322.75 51.135C1322.75 57.039 1327.55 61.836 1333.45 61.836ZM1333.45 56.26C1336.32 56.26 1338.58 53.964 1338.58 51.135C1338.58 48.306 1336.32 46.01 1333.45 46.01C1330.62 46.01 1328.33 48.306 1328.33 51.135C1328.33 53.964 1330.62 56.26 1333.45 56.26ZM1351.04 40.926H1347.8V40.27H1351.04V33.3H1351.7V40.27H1356.62V33.3H1357.27V40.27H1360.51V40.926H1357.27V45.846H1360.51V46.502H1357.27V62H1356.62V46.502H1351.7V62H1351.04V46.502H1347.8V45.846H1351.04V40.926ZM1356.62 40.926H1351.7V45.846H1356.62V40.926ZM1363.49 62V40.27H1364.14V62H1363.49ZM1369.72 40.27V62H1369.06V40.27H1369.72ZM1369.06 38.138V31.25H1369.72V38.138H1369.06ZM1364.14 31.25V38.138H1363.49V31.25H1364.14ZM1384.02 62.492C1377.75 62.492 1372.67 57.408 1372.67 51.135C1372.67 44.862 1377.75 39.778 1384.02 39.778C1390.3 39.778 1395.38 44.862 1395.38 51.135C1395.38 57.408 1390.3 62.492 1384.02 62.492ZM1384.02 61.836C1389.93 61.836 1394.72 57.039 1394.72 51.135C1394.72 45.231 1389.93 40.434 1384.02 40.434C1378.12 40.434 1373.32 45.231 1373.32 51.135C1373.32 57.039 1378.12 61.836 1384.02 61.836ZM1384.02 56.916C1380.82 56.916 1378.24 54.333 1378.24 51.135C1378.24 47.937 1380.82 45.354 1384.02 45.354C1387.22 45.354 1389.8 47.937 1389.8 51.135C1389.8 54.333 1387.22 56.916 1384.02 56.916ZM1384.02 56.26C1386.85 56.26 1389.15 53.964 1389.15 51.135C1389.15 48.306 1386.85 46.01 1384.02 46.01C1381.19 46.01 1378.9 48.306 1378.9 51.135C1378.9 53.964 1381.19 56.26 1384.02 56.26ZM1398.32 62V40.27H1398.98V46.461C1399.88 44.124 1401.64 42.197 1403.9 41.09V40.27H1404.55V40.762C1405.7 40.311 1406.93 40.065 1408.24 40.065C1413.69 40.065 1418.16 44.534 1418.16 49.987V62H1417.51V49.987C1417.51 44.903 1413.33 40.721 1408.24 40.721C1406.93 40.721 1405.7 41.008 1404.55 41.5V47.691C1405.33 46.461 1406.68 45.641 1408.24 45.641C1410.62 45.641 1412.59 47.609 1412.59 49.987V62H1411.93V49.987C1411.93 47.978 1410.25 46.297 1408.24 46.297C1406.23 46.297 1404.55 47.978 1404.55 49.987V62H1403.9V41.828C1400.98 43.386 1398.98 46.461 1398.98 49.987V62H1398.32ZM1445.14 47.65C1445.14 43.263 1441.86 39.696 1437.4 39.532V55.768C1441.86 55.604 1445.14 52.037 1445.14 47.65ZM1437.4 56.424V61.344C1444.86 61.18 1450.72 55.153 1450.72 47.65C1450.72 40.188 1444.86 34.12 1437.4 33.956V38.876C1442.27 39.04 1445.8 42.935 1445.8 47.65C1445.8 52.365 1442.27 56.26 1437.4 56.424ZM1431.16 62V33.3H1437.07C1445.02 33.3 1451.38 39.737 1451.38 47.65C1451.38 55.563 1445.02 62 1437.07 62H1431.16ZM1436.74 55.768V39.532H1431.82V55.768H1436.74ZM1436.74 56.424H1431.82V61.344H1436.74V56.424ZM1436.74 38.876V33.956H1431.82V38.876H1436.74ZM1464.62 62.492C1458.35 62.492 1453.26 57.408 1453.26 51.135C1453.26 44.862 1458.35 39.778 1464.62 39.778C1470.89 39.778 1475.98 44.862 1475.98 51.135C1475.98 57.408 1470.89 62.492 1464.62 62.492ZM1464.62 61.836C1470.52 61.836 1475.32 57.039 1475.32 51.135C1475.32 45.231 1470.52 40.434 1464.62 40.434C1458.72 40.434 1453.92 45.231 1453.92 51.135C1453.92 57.039 1458.72 61.836 1464.62 61.836ZM1464.62 56.916C1461.42 56.916 1458.84 54.333 1458.84 51.135C1458.84 47.937 1461.42 45.354 1464.62 45.354C1467.82 45.354 1470.4 47.937 1470.4 51.135C1470.4 54.333 1467.82 56.916 1464.62 56.916ZM1464.62 56.26C1467.45 56.26 1469.75 53.964 1469.75 51.135C1469.75 48.306 1467.45 46.01 1464.62 46.01C1461.79 46.01 1459.5 48.306 1459.5 51.135C1459.5 53.964 1461.79 56.26 1464.62 56.26ZM1478.92 62V40.27H1479.57V45.969C1480.48 43.714 1482.28 41.869 1484.49 40.885V40.27H1485.15V40.639C1486.09 40.311 1487.16 40.106 1488.22 40.106C1490.6 40.106 1492.78 41.008 1494.42 42.484C1496.06 41.008 1498.23 40.106 1500.61 40.106C1505.73 40.106 1509.91 44.288 1509.91 49.413V62H1509.26V49.413C1509.26 44.657 1505.36 40.762 1500.61 40.762C1498.43 40.762 1496.42 41.582 1494.91 42.935C1496.14 44.206 1497 45.805 1497.37 47.609C1497.98 46.461 1499.21 45.682 1500.61 45.682C1502.66 45.682 1504.34 47.363 1504.34 49.413V62H1503.68V49.413C1503.68 47.732 1502.29 46.338 1500.61 46.338C1498.93 46.338 1497.53 47.732 1497.53 49.413V62H1496.88V49.413C1496.88 47.076 1495.93 44.944 1494.42 43.386C1492.9 44.944 1491.96 47.076 1491.96 49.413V62H1491.3V49.413C1491.3 47.732 1489.91 46.338 1488.22 46.338C1486.54 46.338 1485.15 47.732 1485.15 49.413V62H1484.49V41.623C1481.58 43.017 1479.57 46.01 1479.57 49.413V62H1478.92ZM1485.15 41.336V47.322C1485.81 46.338 1486.95 45.682 1488.22 45.682C1489.62 45.682 1490.85 46.461 1491.46 47.609C1491.83 45.805 1492.69 44.206 1493.92 42.935C1492.41 41.582 1490.4 40.762 1488.22 40.762C1487.16 40.762 1486.09 40.967 1485.15 41.336ZM1540.93 55.522L1538.31 62H1537.65L1530.64 44.698L1527.61 62H1526.95L1530.19 43.55L1526.54 34.448L1521.7 62H1521.05L1526.09 33.3H1526.75L1530.4 42.402L1531.99 33.3H1532.65L1540.93 53.882L1549.21 33.3H1549.87L1551.47 42.361L1555.12 33.3H1555.77L1560.82 62H1560.16L1555.32 34.448L1551.67 43.509L1554.91 62H1554.26L1551.22 44.616L1544.21 62H1543.56L1540.93 55.522ZM1543.88 61.18L1551.02 43.468L1549.42 34.448L1541.26 54.702L1543.88 61.18ZM1540.6 54.702L1532.45 34.448L1530.85 43.55L1537.98 61.18L1540.6 54.702ZM1579.19 42.115V60.155C1581.93 58.474 1584.11 55.071 1584.11 51.135C1584.11 47.199 1581.93 43.796 1579.19 42.115ZM1573.41 39.778C1575.25 39.778 1576.97 40.229 1578.53 41.008V40.27H1579.19V41.377C1581.48 42.648 1583.25 44.944 1584.11 47.322V40.27H1584.76V62H1584.11V54.907C1583.29 57.244 1581.48 59.663 1579.19 60.934V62H1578.53V61.262C1576.97 62.041 1575.25 62.492 1573.41 62.492C1567.13 62.492 1562.05 57.408 1562.05 51.135C1562.05 44.862 1567.13 39.778 1573.41 39.778ZM1573.41 61.836C1575.25 61.836 1577.01 61.385 1578.53 60.565V53.841C1577.55 55.645 1575.62 56.916 1573.41 56.916C1570.21 56.916 1567.63 54.333 1567.63 51.135C1567.63 47.937 1570.21 45.354 1573.41 45.354C1575.62 45.354 1577.55 46.625 1578.53 48.47V41.746C1577.01 40.926 1575.25 40.434 1573.41 40.434C1567.5 40.434 1562.71 45.231 1562.71 51.135C1562.71 57.039 1567.5 61.836 1573.41 61.836ZM1573.41 56.26C1576.28 56.26 1578.53 53.964 1578.53 51.135C1578.53 48.306 1576.28 46.01 1573.41 46.01C1570.58 46.01 1568.28 48.306 1568.28 51.135C1568.28 53.964 1570.58 56.26 1573.41 56.26ZM1588.95 62V40.27H1589.6V46.461C1590.5 44.124 1592.27 42.197 1594.52 41.09V40.27H1595.18V40.762C1596.33 40.311 1597.56 40.065 1598.87 40.065C1604.32 40.065 1608.79 44.534 1608.79 49.987V62H1608.13V49.987C1608.13 44.903 1603.95 40.721 1598.87 40.721C1597.56 40.721 1596.33 41.008 1595.18 41.5V47.691C1595.96 46.461 1597.31 45.641 1598.87 45.641C1601.25 45.641 1603.21 47.609 1603.21 49.987V62H1602.56V49.987C1602.56 47.978 1600.88 46.297 1598.87 46.297C1596.86 46.297 1595.18 47.978 1595.18 49.987V62H1594.52V41.828C1591.61 43.386 1589.6 46.461 1589.6 49.987V62H1588.95ZM1612.65 62V40.27H1613.3V62H1612.65ZM1618.88 40.27V62H1618.22V40.27H1618.88ZM1618.22 38.138V31.25H1618.88V38.138H1618.22ZM1613.3 31.25V38.138H1612.65V31.25H1613.3ZM1628.63 60.155V42.115C1625.89 43.796 1623.71 47.199 1623.71 51.135C1623.71 55.071 1625.89 58.474 1628.63 60.155ZM1634.42 62.492C1632.57 62.492 1630.85 62.041 1629.29 61.262V71.02H1628.63V60.893C1626.34 59.622 1624.53 57.285 1623.71 54.948V71.02H1623.06V40.27H1623.71V47.363C1624.53 44.985 1626.34 42.607 1628.63 41.336V40.27H1629.29V41.008C1630.85 40.229 1632.57 39.778 1634.42 39.778C1640.69 39.778 1645.77 44.862 1645.77 51.135C1645.77 57.408 1640.69 62.492 1634.42 62.492ZM1634.42 56.916C1632.2 56.916 1630.27 55.645 1629.29 53.8V60.524C1630.81 61.344 1632.57 61.836 1634.42 61.836C1640.32 61.836 1645.12 57.039 1645.12 51.135C1645.12 45.231 1640.32 40.434 1634.42 40.434C1632.57 40.434 1630.81 40.885 1629.29 41.705V48.429C1630.27 46.625 1632.2 45.354 1634.42 45.354C1637.61 45.354 1640.2 47.937 1640.2 51.135C1640.2 54.333 1637.61 56.916 1634.42 56.916ZM1634.42 46.01C1631.55 46.01 1629.29 48.306 1629.29 51.135C1629.29 53.964 1631.55 56.26 1634.42 56.26C1637.24 56.26 1639.54 53.964 1639.54 51.135C1639.54 48.306 1637.24 46.01 1634.42 46.01ZM1668.24 40.27V62H1667.58V55.809C1666.68 58.146 1664.92 60.073 1662.66 61.18V62H1662.01V61.508C1660.86 61.959 1659.63 62.205 1658.32 62.205C1652.86 62.205 1648.4 57.736 1648.4 52.283V40.27H1649.05V52.283C1649.05 57.367 1653.23 61.549 1658.32 61.549C1659.63 61.549 1660.86 61.262 1662.01 60.77V54.579C1661.23 55.809 1659.88 56.629 1658.32 56.629C1655.94 56.629 1653.97 54.661 1653.97 52.283V40.27H1654.63V52.283C1654.63 54.292 1656.31 55.973 1658.32 55.973C1660.33 55.973 1662.01 54.292 1662.01 52.283V40.27H1662.66V60.442C1665.57 58.884 1667.58 55.809 1667.58 52.283V40.27H1668.24ZM1673.08 31.25V62H1672.43V31.25H1673.08ZM1678.66 31.25V62H1678V31.25H1678.66ZM1698.74 42.115V60.155C1701.49 58.474 1703.66 55.071 1703.66 51.135C1703.66 47.199 1701.49 43.796 1698.74 42.115ZM1692.96 39.778C1694.81 39.778 1696.53 40.229 1698.09 41.008V40.27H1698.74V41.377C1701.04 42.648 1702.8 44.944 1703.66 47.322V40.27H1704.32V62H1703.66V54.907C1702.84 57.244 1701.04 59.663 1698.74 60.934V62H1698.09V61.262C1696.53 62.041 1694.81 62.492 1692.96 62.492C1686.69 62.492 1681.61 57.408 1681.61 51.135C1681.61 44.862 1686.69 39.778 1692.96 39.778ZM1692.96 61.836C1694.81 61.836 1696.57 61.385 1698.09 60.565V53.841C1697.1 55.645 1695.18 56.916 1692.96 56.916C1689.77 56.916 1687.18 54.333 1687.18 51.135C1687.18 47.937 1689.77 45.354 1692.96 45.354C1695.18 45.354 1697.1 46.625 1698.09 48.47V41.746C1696.57 40.926 1694.81 40.434 1692.96 40.434C1687.06 40.434 1682.26 45.231 1682.26 51.135C1682.26 57.039 1687.06 61.836 1692.96 61.836ZM1692.96 56.26C1695.83 56.26 1698.09 53.964 1698.09 51.135C1698.09 48.306 1695.83 46.01 1692.96 46.01C1690.13 46.01 1687.84 48.306 1687.84 51.135C1687.84 53.964 1690.13 56.26 1692.96 56.26ZM1710.55 40.926H1707.31V40.27H1710.55V33.3H1711.21V40.27H1716.13V33.3H1716.78V40.27H1720.02V40.926H1716.78V45.846H1720.02V46.502H1716.78V62H1716.13V46.502H1711.21V62H1710.55V46.502H1707.31V45.846H1710.55V40.926ZM1716.13 40.926H1711.21V45.846H1716.13V40.926ZM1723 62V40.27H1723.65V62H1723ZM1729.23 40.27V62H1728.57V40.27H1729.23ZM1728.57 38.138V31.25H1729.23V38.138H1728.57ZM1723.65 31.25V38.138H1723V31.25H1723.65ZM1743.53 62.492C1737.26 62.492 1732.18 57.408 1732.18 51.135C1732.18 44.862 1737.26 39.778 1743.53 39.778C1749.81 39.778 1754.89 44.862 1754.89 51.135C1754.89 57.408 1749.81 62.492 1743.53 62.492ZM1743.53 61.836C1749.44 61.836 1754.23 57.039 1754.23 51.135C1754.23 45.231 1749.44 40.434 1743.53 40.434C1737.63 40.434 1732.83 45.231 1732.83 51.135C1732.83 57.039 1737.63 61.836 1743.53 61.836ZM1743.53 56.916C1740.33 56.916 1737.75 54.333 1737.75 51.135C1737.75 47.937 1740.33 45.354 1743.53 45.354C1746.73 45.354 1749.31 47.937 1749.31 51.135C1749.31 54.333 1746.73 56.916 1743.53 56.916ZM1743.53 56.26C1746.36 56.26 1748.66 53.964 1748.66 51.135C1748.66 48.306 1746.36 46.01 1743.53 46.01C1740.7 46.01 1738.41 48.306 1738.41 51.135C1738.41 53.964 1740.7 56.26 1743.53 56.26ZM1757.83 62V40.27H1758.49V46.461C1759.39 44.124 1761.15 42.197 1763.41 41.09V40.27H1764.06V40.762C1765.21 40.311 1766.44 40.065 1767.75 40.065C1773.2 40.065 1777.67 44.534 1777.67 49.987V62H1777.02V49.987C1777.02 44.903 1772.84 40.721 1767.75 40.721C1766.44 40.721 1765.21 41.008 1764.06 41.5V47.691C1764.84 46.461 1766.19 45.641 1767.75 45.641C1770.13 45.641 1772.1 47.609 1772.1 49.987V62H1771.44V49.987C1771.44 47.978 1769.76 46.297 1767.75 46.297C1765.74 46.297 1764.06 47.978 1764.06 49.987V62H1763.41V41.828C1760.49 43.386 1758.49 46.461 1758.49 49.987V62H1757.83ZM1804.66 47.65C1804.66 43.263 1801.38 39.696 1796.91 39.532V55.768C1801.38 55.604 1804.66 52.037 1804.66 47.65ZM1796.91 56.424V61.344C1804.37 61.18 1810.23 55.153 1810.23 47.65C1810.23 40.188 1804.37 34.12 1796.91 33.956V38.876C1801.79 39.04 1805.31 42.935 1805.31 47.65C1805.31 52.365 1801.79 56.26 1796.91 56.424ZM1790.67 62V33.3H1796.58C1804.53 33.3 1810.89 39.737 1810.89 47.65C1810.89 55.563 1804.53 62 1796.58 62H1790.67ZM1796.25 55.768V39.532H1791.33V55.768H1796.25ZM1796.25 56.424H1791.33V61.344H1796.25V56.424ZM1796.25 38.876V33.956H1791.33V38.876H1796.25ZM1824.13 62.492C1817.86 62.492 1812.77 57.408 1812.77 51.135C1812.77 44.862 1817.86 39.778 1824.13 39.778C1830.4 39.778 1835.49 44.862 1835.49 51.135C1835.49 57.408 1830.4 62.492 1824.13 62.492ZM1824.13 61.836C1830.04 61.836 1834.83 57.039 1834.83 51.135C1834.83 45.231 1830.04 40.434 1824.13 40.434C1818.23 40.434 1813.43 45.231 1813.43 51.135C1813.43 57.039 1818.23 61.836 1824.13 61.836ZM1824.13 56.916C1820.93 56.916 1818.35 54.333 1818.35 51.135C1818.35 47.937 1820.93 45.354 1824.13 45.354C1827.33 45.354 1829.91 47.937 1829.91 51.135C1829.91 54.333 1827.33 56.916 1824.13 56.916ZM1824.13 56.26C1826.96 56.26 1829.26 53.964 1829.26 51.135C1829.26 48.306 1826.96 46.01 1824.13 46.01C1821.3 46.01 1819.01 48.306 1819.01 51.135C1819.01 53.964 1821.3 56.26 1824.13 56.26ZM1838.43 62V40.27H1839.08V45.969C1839.99 43.714 1841.79 41.869 1844 40.885V40.27H1844.66V40.639C1845.6 40.311 1846.67 40.106 1847.74 40.106C1850.11 40.106 1852.29 41.008 1853.93 42.484C1855.57 41.008 1857.74 40.106 1860.12 40.106C1865.24 40.106 1869.42 44.288 1869.42 49.413V62H1868.77V49.413C1868.77 44.657 1864.87 40.762 1860.12 40.762C1857.94 40.762 1855.94 41.582 1854.42 42.935C1855.65 44.206 1856.51 45.805 1856.88 47.609C1857.49 46.461 1858.72 45.682 1860.12 45.682C1862.17 45.682 1863.85 47.363 1863.85 49.413V62H1863.19V49.413C1863.19 47.732 1861.8 46.338 1860.12 46.338C1858.44 46.338 1857.04 47.732 1857.04 49.413V62H1856.39V49.413C1856.39 47.076 1855.44 44.944 1853.93 43.386C1852.41 44.944 1851.47 47.076 1851.47 49.413V62H1850.81V49.413C1850.81 47.732 1849.42 46.338 1847.74 46.338C1846.05 46.338 1844.66 47.732 1844.66 49.413V62H1844V41.623C1841.09 43.017 1839.08 46.01 1839.08 49.413V62H1838.43ZM1844.66 41.336V47.322C1845.32 46.338 1846.46 45.682 1847.74 45.682C1849.13 45.682 1850.36 46.461 1850.97 47.609C1851.34 45.805 1852.2 44.206 1853.43 42.935C1851.92 41.582 1849.91 40.762 1847.74 40.762C1846.67 40.762 1845.6 40.967 1844.66 41.336ZM1900.44 55.522L1897.82 62H1897.16L1890.15 44.698L1887.12 62H1886.46L1889.7 43.55L1886.05 34.448L1881.21 62H1880.56L1885.6 33.3H1886.26L1889.91 42.402L1891.5 33.3H1892.16L1900.44 53.882L1908.72 33.3H1909.38L1910.98 42.361L1914.63 33.3H1915.28L1920.33 62H1919.67L1914.83 34.448L1911.18 43.509L1914.42 62H1913.77L1910.73 44.616L1903.72 62H1903.07L1900.44 55.522ZM1903.39 61.18L1910.53 43.468L1908.93 34.448L1900.77 54.702L1903.39 61.18ZM1900.11 54.702L1891.96 34.448L1890.36 43.55L1897.49 61.18L1900.11 54.702Z" fill="white"/>
</g>
<defs>
<clipPath id="clip0_0_25">
<rect width="1940" height="343" fill="white"/>
</clipPath>
</defs>
</svg>
